<svg version="1.2" xmlns="http://www.w3.org/2000/svg" viewBox="0 0 751 185" width="751" height="185">
	<title>New Project</title>
	<style>
		tspan { white-space:pre } 
		.s0 { fill: #800059 } 
		.s1 { opacity: .8;fill: #915385 } 
		.t2 { font-size: 41px;line-height: 49px;fill: #000000;font-weight: 400;font-family: "IBMPlexMono-Regular", "IBM Plex Mono" } 
		.t3 { font-size: 41px;line-height: 49px;fill: #800059;font-weight: 400;font-family: "IBMPlexMono-Regular", "IBM Plex Mono" } 
	</style>
	<g id="&lt;Group&gt;">
		<path id="&lt;Compound Path&gt;" class="s0" d="m99.5 162c-37.9 0-68.5-30.6-68.5-68.5 0-37.9 30.6-68.5 68.5-68.5 37.9 0 68.5 30.6 68.5 68.5 0 37.9-30.6 68.5-68.5 68.5z"/>
		<path id="&lt;Compound Path&gt;" class="s1" d="m200.6 162c-37.9 0-68.5-30.6-68.5-68.5 0-37.9 30.6-68.5 68.5-68.5 37.9 0 68.5 30.6 68.5 68.5 0 37.9-30.6 68.5-68.5 68.5z"/>
	</g>
	<text id="brzi.info" style="transform: matrix(2,0,0,2,529.376,131.863)" >
		<tspan x="-109.4" y="0" class="t2">b</tspan><tspan  y="0" class="t2">r</tspan><tspan  y="0" class="t2">z</tspan><tspan  y="0" class="t2">i</tspan><tspan  y="0" class="t2">.</tspan><tspan  y="0" class="t3">i</tspan><tspan  y="0" class="t3">n</tspan><tspan  y="0" class="t3">f</tspan><tspan  y="0" class="t3">o</tspan><tspan  y="0" class="t3">
</tspan>
	</text>
</svg>